<svg id="Layer_1" data-name="Layer 1" xmlns="http://www.w3.org/2000/svg" viewBox="0 0 150 32"><defs><style>.cls-1{fill:#6c04ee;}</style></defs><path class="cls-1" d="M103.41,3.38a4.94,4.94,0,0,0-2.14.46,5.45,5.45,0,0,0-.68.35.36.36,0,0,0-.12.45.28.28,0,0,0,.39.13l.26-.13a4.8,4.8,0,0,1,4.62,0c.1,0,.2.11.3.15a.29.29,0,0,0,.37-.15.3.3,0,0,0-.1-.4,2.2,2.2,0,0,0-.25-.17A5.31,5.31,0,0,0,103.41,3.38Zm0,1.38c-.28,0-.56.06-.84.11a3.89,3.89,0,0,0-1.42.57.34.34,0,0,0-.12.44.26.26,0,0,0,.37.14l.28-.13A3.49,3.49,0,0,1,105,5.83l.42.2a.29.29,0,0,0,.37-.13.31.31,0,0,0-.07-.41.94.94,0,0,0-.23-.16A4.24,4.24,0,0,0,103.45,4.76Zm0,1.43a2.87,2.87,0,0,0-1.56.43.62.62,0,0,0-.18.14.33.33,0,0,0,0,.39.25.25,0,0,0,.35.13l.3-.15a2.21,2.21,0,0,1,1.61-.21,7.18,7.18,0,0,1,.87.35.28.28,0,0,0,.39-.13.33.33,0,0,0-.09-.43L105,6.63A2.75,2.75,0,0,0,103.46,6.19Zm-.1,1.31a1.63,1.63,0,0,0-1,.43.3.3,0,0,0-.06.41.28.28,0,0,0,.38.12l.15-.08a1.2,1.2,0,0,1,1.32,0l.17.1a.31.31,0,0,0,.32-.51.87.87,0,0,0-.23-.2A1.89,1.89,0,0,0,103.36,7.5Z"/><path class="cls-1" d="M103.41,3.38a5.31,5.31,0,0,1,2.65.68,2.2,2.2,0,0,1,.25.17.3.3,0,0,1,.1.4.29.29,0,0,1-.37.15c-.1,0-.2-.1-.3-.15a4.8,4.8,0,0,0-4.62,0l-.26.13a.28.28,0,0,1-.39-.13.36.36,0,0,1,.12-.45,5.45,5.45,0,0,1,.68-.35A4.94,4.94,0,0,1,103.41,3.38Z"/><path class="cls-1" d="M103.45,4.76a4.24,4.24,0,0,1,2,.57.94.94,0,0,1,.23.16.31.31,0,0,1,.07.41.29.29,0,0,1-.37.13l-.42-.2a3.49,3.49,0,0,0-3.29.06l-.28.13a.26.26,0,0,1-.37-.14.34.34,0,0,1,.12-.44,3.89,3.89,0,0,1,1.42-.57C102.89,4.82,103.17,4.79,103.45,4.76Z"/><path class="cls-1" d="M103.46,6.19a2.75,2.75,0,0,1,1.54.44l.11.08a.33.33,0,0,1,.09.43.28.28,0,0,1-.39.13,7.18,7.18,0,0,0-.87-.35,2.21,2.21,0,0,0-1.61.21l-.3.15a.25.25,0,0,1-.35-.13.33.33,0,0,1,0-.39.62.62,0,0,1,.18-.14A2.87,2.87,0,0,1,103.46,6.19Z"/><path class="cls-1" d="M103.36,7.5a1.89,1.89,0,0,1,1,.27.87.87,0,0,1,.23.2.31.31,0,0,1-.32.51l-.17-.1a1.2,1.2,0,0,0-1.32,0l-.15.08a.28.28,0,0,1-.38-.12.3.3,0,0,1,.06-.41A1.63,1.63,0,0,1,103.36,7.5Z"/><path class="cls-1" d="M102.77,31.92c-.17-.29-.49-.59-.48-.88a6.14,6.14,0,0,0-1.16-3.43A11.77,11.77,0,0,1,99.37,23a2.43,2.43,0,0,1,.61-2.27c.63-.58,1.33-.31,1.47.55,0,.32,0,.74.47.6.16,0,.32-.48.32-.74,0-3.31,0-6.61,0-9.91,0-.19,0-.37,0-.55a1.22,1.22,0,1,1,2.42,0c0,2.11,0,4.22,0,6.33a1.28,1.28,0,0,0,0,.48,2.32,2.32,0,0,0,.35.49c.15-.16.38-.29.44-.48a4.26,4.26,0,0,0,0-.88,1.18,1.18,0,1,1,2.35,0c0,.78,0,1.56,0,2.34,0,.35,0,.76.43.75s.41-.43.42-.78c0-.18,0-.37,0-.55a1.26,1.26,0,0,1,1.07-1.24,1.14,1.14,0,0,1,1.25,1c.09.65.05,1.33.09,2,0,.36-.13.9.41.89s.35-.51.38-.85a5.21,5.21,0,0,1,0-.69,1.18,1.18,0,0,1,2.35.16c0,2.28.28,4.59-.62,6.78a11.89,11.89,0,0,0-.6,4.33,4.1,4.1,0,0,1-.42,1.2Z"/><path class="cls-1" d="M97.11,9c.49,0,1,0,1.46,0a.83.83,0,0,1,.88.88.8.8,0,0,1-.88.86c-1,0-2,0-3,0a.79.79,0,0,1-.87-.87A.81.81,0,0,1,95.52,9C96.05,9,96.58,9,97.11,9Z"/><path class="cls-1" d="M109.9,10.77c-.49,0-1,0-1.47,0a.8.8,0,0,1-.86-.87.82.82,0,0,1,.88-.87c1,0,2,0,3,0a.79.79,0,0,1,.86.87c0,.61-.37.84-.88.86S110.43,10.77,109.9,10.77Z"/><path class="cls-1" d="M13.56,16.34a3.22,3.22,0,0,0-1.85.58L6.29,12.83a3.82,3.82,0,0,0,.14-1,3.88,3.88,0,0,0-.14-1l5.27-4a3.25,3.25,0,0,0,2,.69A3.61,3.61,0,0,0,17,3.74,3.61,3.61,0,0,0,13.56,0,3.61,3.61,0,0,0,10.1,3.74a4.17,4.17,0,0,0,.08.8L4.78,8.61A3.28,3.28,0,0,0,3,8.06,3.61,3.61,0,0,0-.5,11.8,3.62,3.62,0,0,0,3,15.55,3.29,3.29,0,0,0,4.78,15l5.44,4.11a3.93,3.93,0,0,0-.12,1,3.61,3.61,0,0,0,3.46,3.74A3.61,3.61,0,0,0,17,20.08,3.61,3.61,0,0,0,13.56,16.34Z"/><path class="cls-1" d="M3,15.58A3.25,3.25,0,0,0,4.82,15l5.41,4.09a4.27,4.27,0,0,0-.13,1,4.34,4.34,0,0,0,.13,1L5,25.13a3.21,3.21,0,0,0-2-.69,3.75,3.75,0,0,0,0,7.48,3.61,3.61,0,0,0,3.47-3.74,4.26,4.26,0,0,0-.08-.8l5.4-4.07a3.27,3.27,0,0,0,1.81.55A3.61,3.61,0,0,0,17,20.12a3.61,3.61,0,0,0-3.46-3.74,3.27,3.27,0,0,0-1.81.55L6.3,12.82a3.93,3.93,0,0,0,.13-1A3.62,3.62,0,0,0,3,8.1,3.61,3.61,0,0,0-.5,11.84,3.61,3.61,0,0,0,3,15.58Z"/><path class="cls-1" d="M20.79,17a.59.59,0,0,1,.15-.41.47.47,0,0,1,.37-.16h1.15a.44.44,0,0,1,.36.16A.64.64,0,0,1,23,17V31.4a.61.61,0,0,1-.14.4.42.42,0,0,1-.36.17H21.31a.45.45,0,0,1-.37-.17.57.57,0,0,1-.15-.4Zm3.79,6.35a.63.63,0,0,1,.13-.41.47.47,0,0,1,.37-.16h8.13V17a.56.56,0,0,1,.16-.41.46.46,0,0,1,.35-.16h1.1a.49.49,0,0,1,.38.16.59.59,0,0,1,.15.41V31.4a.57.57,0,0,1-.15.4.47.47,0,0,1-.38.17h-1.1a.44.44,0,0,1-.35-.17.54.54,0,0,1-.16-.4V24.86H25.08a.46.46,0,0,1-.37-.15.56.56,0,0,1-.13-.39Z"/><path class="cls-1" d="M55.41,31.49a1.25,1.25,0,0,1,.06.21.25.25,0,0,1-.28.27H53.63a.37.37,0,0,1-.34-.24l-1.58-3.58H45c-.13,0-.19-.07-.19-.21a.34.34,0,0,1,0-.15l.62-1.33a.41.41,0,0,1,.41-.3h4.93l-3.39-7.92L41.34,31.73A.35.35,0,0,1,41,32H39.62c-.19,0-.28-.09-.28-.27,0,0,0-.09,0-.21L46,17a1.07,1.07,0,0,1,.32-.41.68.68,0,0,1,.43-.16h1.31a.68.68,0,0,1,.43.16,1.17,1.17,0,0,1,.32.41Z"/><path class="cls-1" d="M59.92,17a.64.64,0,0,1,.14-.41.45.45,0,0,1,.36-.16h8.36a4,4,0,0,1,1.71.37,4.42,4.42,0,0,1,1.4,1,4.82,4.82,0,0,1,.94,1.5,4.72,4.72,0,0,1,.35,1.85,5,5,0,0,1-.25,1.6,4.8,4.8,0,0,1-.7,1.35,4.71,4.71,0,0,1-1,1,4,4,0,0,1-1.31.62l3.95,5.84a.37.37,0,0,1,.06.21c0,.1-.06.15-.17.15H72a.78.78,0,0,1-.41-.14,1.26,1.26,0,0,1-.35-.34L67.42,26H64.16a.5.5,0,0,1-.37-.15.56.56,0,0,1-.13-.39v-.94a.56.56,0,0,1,.13-.39.5.5,0,0,1,.37-.15H68.5a2.47,2.47,0,0,0,1.83-.78,2.82,2.82,0,0,0,0-3.85,2.45,2.45,0,0,0-1.83-.79H62.07V31.43a.53.53,0,0,1-.53.54H60.42a.48.48,0,0,1-.36-.15.56.56,0,0,1-.14-.39Z"/><path class="cls-1" d="M81.18,29.89h9.88a.47.47,0,0,1,.35.17.58.58,0,0,1,.16.4v1a.54.54,0,0,1-.16.37.44.44,0,0,1-.35.17H79.53a.45.45,0,0,1-.35-.17.53.53,0,0,1-.15-.37V17a.59.59,0,0,1,.15-.41.47.47,0,0,1,.35-.16H90.92a.49.49,0,0,1,.38.16.59.59,0,0,1,.15.41v1a.55.55,0,0,1-.15.38.49.49,0,0,1-.38.16H81.18Zm1.53-6.5a.52.52,0,0,1,.14-.39.46.46,0,0,1,.36-.15h7a.49.49,0,0,1,.35.15.53.53,0,0,1,.15.39v.93a.53.53,0,0,1-.15.39.45.45,0,0,1-.35.15h-7a.43.43,0,0,1-.36-.15.52.52,0,0,1-.14-.39Z"/><path class="cls-1" d="M132.73,31.22a.85.85,0,0,1,.05.21.24.24,0,0,1-.27.27H131a.37.37,0,0,1-.34-.24L129,27.88h-6.68a.18.18,0,0,1-.2-.21.33.33,0,0,1,0-.15l.61-1.33a.43.43,0,0,1,.42-.3h4.93L124.73,18l-6.07,13.49a.35.35,0,0,1-.33.24h-1.39c-.19,0-.28-.09-.28-.27a.85.85,0,0,1,0-.21l6.6-14.48a1.3,1.3,0,0,1,.32-.41.7.7,0,0,1,.44-.16h1.31a.7.7,0,0,1,.43.16,1.17,1.17,0,0,1,.32.41Z"/><path class="cls-1" d="M137.24,16.74a.64.64,0,0,1,.14-.41.44.44,0,0,1,.36-.16h8.39a4,4,0,0,1,1.71.37,4.38,4.38,0,0,1,1.38,1,5,5,0,0,1,.93,1.5,4.91,4.91,0,0,1,.35,1.85,4.93,4.93,0,0,1-1.28,3.35,4.45,4.45,0,0,1-1.38,1,3.82,3.82,0,0,1-1.71.38h-4.66a.49.49,0,0,1-.36-.15.56.56,0,0,1-.14-.39v-.93a.57.57,0,0,1,.14-.4.49.49,0,0,1,.36-.15h4.32a2.55,2.55,0,0,0,1-.21,2.76,2.76,0,0,0,.85-.57,2.73,2.73,0,0,0,.78-1.93,2.59,2.59,0,0,0-.21-1.05,2.71,2.71,0,0,0-.57-.84,2.76,2.76,0,0,0-.85-.57,2.4,2.4,0,0,0-1-.22h-6.4V31.16a.53.53,0,0,1-.16.39.5.5,0,0,1-.37.15h-1.12a.46.46,0,0,1-.36-.15.56.56,0,0,1-.14-.39Z"/></svg>