<svg id="Layer_1" data-name="Layer 1" xmlns="http://www.w3.org/2000/svg" viewBox="0 0 464 100"><defs><style>.cls-1{fill:#6c04ee;}</style></defs><path class="cls-1" d="M319.29,10.57A15,15,0,0,0,312.71,12a20.59,20.59,0,0,0-2.07,1.11,1.09,1.09,0,0,0-.37,1.39.84.84,0,0,0,1.19.41c.27-.12.54-.26.81-.4a14.54,14.54,0,0,1,14.19,0c.31.16.61.34.93.47a.88.88,0,0,0,1.12-.48,1,1,0,0,0-.29-1.26,8.28,8.28,0,0,0-.79-.52A16,16,0,0,0,319.29,10.57Zm.12,4.29c-.86.11-1.72.19-2.57.35a11.64,11.64,0,0,0-4.36,1.8,1,1,0,0,0-.36,1.36.78.78,0,0,0,1.13.44c.29-.12.57-.26.85-.41a10.65,10.65,0,0,1,10.12-.2c.44.22.86.44,1.3.64a.85.85,0,0,0,1.11-.42,1,1,0,0,0-.19-1.25,3.91,3.91,0,0,0-.7-.53A13.68,13.68,0,0,0,319.41,14.86Zm0,4.49a8.67,8.67,0,0,0-4.8,1.33,2.81,2.81,0,0,0-.54.44,1.07,1.07,0,0,0-.13,1.22.77.77,0,0,0,1.07.41c.32-.13.62-.3.94-.46a6.64,6.64,0,0,1,4.94-.67,23.67,23.67,0,0,1,2.69,1.09.84.84,0,0,0,1.18-.41,1,1,0,0,0-.28-1.33,2,2,0,0,0-.33-.24A8.4,8.4,0,0,0,319.45,19.35Zm-.3,4.1a5,5,0,0,0-3.25,1.34,1,1,0,0,0-.17,1.26.85.85,0,0,0,1.17.4c.16-.08.31-.18.47-.27a3.61,3.61,0,0,1,4.05,0,2.81,2.81,0,0,0,.54.29.88.88,0,0,0,1.08-.43.94.94,0,0,0-.12-1.17,3.54,3.54,0,0,0-.69-.6A5.69,5.69,0,0,0,319.15,23.45Z"/><path class="cls-1" d="M319.29,10.57a16,16,0,0,1,8.14,2.12,8.28,8.28,0,0,1,.79.52,1,1,0,0,1,.29,1.26.88.88,0,0,1-1.12.48c-.32-.13-.62-.31-.93-.47a14.54,14.54,0,0,0-14.19,0c-.27.14-.54.28-.81.4a.84.84,0,0,1-1.19-.41,1.09,1.09,0,0,1,.37-1.39A20.59,20.59,0,0,1,312.71,12,15,15,0,0,1,319.29,10.57Z"/><path class="cls-1" d="M319.41,14.86a13.68,13.68,0,0,1,6.33,1.78,3.91,3.91,0,0,1,.7.53,1,1,0,0,1,.19,1.25.85.85,0,0,1-1.11.42c-.44-.2-.86-.42-1.3-.64a10.65,10.65,0,0,0-10.12.2c-.28.15-.56.29-.85.41a.78.78,0,0,1-1.13-.44,1,1,0,0,1,.36-1.36,11.64,11.64,0,0,1,4.36-1.8C317.69,15.05,318.55,15,319.41,14.86Z"/><path class="cls-1" d="M319.45,19.35a8.4,8.4,0,0,1,4.74,1.38,2,2,0,0,1,.33.24,1,1,0,0,1,.28,1.33.84.84,0,0,1-1.18.41,23.67,23.67,0,0,0-2.69-1.09,6.64,6.64,0,0,0-4.94.67c-.32.16-.62.33-.94.46a.77.77,0,0,1-1.07-.41,1.07,1.07,0,0,1,.13-1.22,2.81,2.81,0,0,1,.54-.44A8.67,8.67,0,0,1,319.45,19.35Z"/><path class="cls-1" d="M319.15,23.45a5.69,5.69,0,0,1,3.08.84,3.54,3.54,0,0,1,.69.6.94.94,0,0,1,.12,1.17.88.88,0,0,1-1.08.43,2.81,2.81,0,0,1-.54-.29,3.61,3.61,0,0,0-4.05,0c-.16.09-.31.19-.47.27a.85.85,0,0,1-1.17-.4,1,1,0,0,1,.17-1.26A5,5,0,0,1,319.15,23.45Z"/><path class="cls-1" d="M317.33,99.75c-.52-.92-1.49-1.84-1.49-2.76,0-4.1-1.5-7.48-3.55-10.71a36.82,36.82,0,0,1-5.4-14.57c-.38-2.65-.14-5.21,1.87-7.08s4.08-1,4.51,1.7c.16,1,.17,2.32,1.44,1.89.52-.17,1-1.51,1-2.33.07-10.32,0-20.64,0-31,0-.58,0-1.15,0-1.72.14-2.56,1.74-4.41,3.76-4.35s3.65,1.89,3.67,4.45c.05,6.59,0,13.19,0,19.78a4.34,4.34,0,0,0,0,1.49,8.14,8.14,0,0,0,1.08,1.55c.47-.49,1.18-.9,1.35-1.49a14.94,14.94,0,0,0,.13-2.78c.16-2.29,1.54-3.78,3.48-3.83A3.68,3.68,0,0,1,333,51.82c.11,2.43,0,4.87.06,7.3,0,1.1-.07,2.39,1.34,2.35s1.26-1.35,1.27-2.43c0-.58,0-1.15,0-1.72A3.92,3.92,0,0,1,339,53.43a3.52,3.52,0,0,1,3.83,3.17c.28,2,.17,4.14.27,6.21.06,1.13-.39,2.81,1.27,2.8s1.09-1.61,1.17-2.69a16.68,16.68,0,0,1,.16-2.13c.46-2.14,1.91-3.33,3.81-3.23a3.62,3.62,0,0,1,3.4,3.73c0,7.12.85,14.32-1.91,21.19-1.71,4.27-1.73,8.9-1.83,13.51,0,1.26-.84,2.51-1.3,3.76Z"/><path class="cls-1" d="M299.94,28.22c1.49,0,3,0,4.49,0A2.54,2.54,0,0,1,307.12,31a2.49,2.49,0,0,1-2.69,2.7c-3.13,0-6.26,0-9.38,0a2.46,2.46,0,0,1-2.68-2.7,2.51,2.51,0,0,1,2.68-2.72C296.68,28.17,298.31,28.22,299.94,28.22Z"/><path class="cls-1" d="M339.23,33.67c-1.5,0-3,0-4.49,0a2.48,2.48,0,0,1-2.66-2.73,2.52,2.52,0,0,1,2.71-2.7c3.12,0,6.25-.05,9.37,0A2.45,2.45,0,0,1,346.8,31a2.47,2.47,0,0,1-2.69,2.68C342.48,33.71,340.86,33.67,339.23,33.67Z"/><path class="cls-1" d="M43.21,51.05a9.92,9.92,0,0,0-5.7,1.83L20.87,40.11a13.17,13.17,0,0,0,.41-3.23,13,13,0,0,0-.41-3.22L37.06,21.23a9.92,9.92,0,0,0,6.15,2.16c5.88,0,10.64-5.24,10.64-11.7S49.09,0,43.21,0,32.57,5.24,32.57,11.69a13.48,13.48,0,0,0,.24,2.49L16.21,26.92a9.87,9.87,0,0,0-5.57-1.73C4.76,25.19,0,30.43,0,36.88s4.76,11.7,10.64,11.7a10,10,0,0,0,5.57-1.73L32.94,59.69a12.76,12.76,0,0,0-.37,3.06c0,6.46,4.76,11.69,10.64,11.69s10.64-5.23,10.64-11.69S49.09,51.05,43.21,51.05Z"/><path class="cls-1" d="M10.64,48.7a9.91,9.91,0,0,0,5.7-1.82L33,59.65a13,13,0,0,0-.41,3.22A13.17,13.17,0,0,0,33,66.1L16.79,78.52a10,10,0,0,0-6.15-2.15C4.76,76.37,0,81.6,0,88.06s4.76,11.7,10.64,11.7,10.64-5.24,10.64-11.7A13.45,13.45,0,0,0,21,85.58l16.6-12.74a10,10,0,0,0,5.57,1.73c5.88,0,10.64-5.24,10.64-11.7S49.09,51.18,43.21,51.18a9.87,9.87,0,0,0-5.57,1.73L20.91,40.07A12.82,12.82,0,0,0,21.28,37c0-6.46-4.76-11.7-10.64-11.7S0,30.55,0,37,4.76,48.7,10.64,48.7Z"/><path class="cls-1" d="M65.41,53.15a1.83,1.83,0,0,1,.47-1.27A1.46,1.46,0,0,1,67,51.36h3.55a1.35,1.35,0,0,1,1.1.52,1.94,1.94,0,0,1,.42,1.27v45a1.94,1.94,0,0,1-.42,1.27,1.38,1.38,0,0,1-1.1.52H67a1.49,1.49,0,0,1-1.14-.52,1.83,1.83,0,0,1-.47-1.27ZM77.05,73a1.9,1.9,0,0,1,.43-1.27,1.39,1.39,0,0,1,1.11-.52h25V53.15a1.78,1.78,0,0,1,.47-1.27,1.44,1.44,0,0,1,1.09-.52h3.38a1.52,1.52,0,0,1,1.17.52,1.79,1.79,0,0,1,.48,1.27v45a1.79,1.79,0,0,1-.48,1.27,1.56,1.56,0,0,1-1.17.52h-3.38a1.47,1.47,0,0,1-1.09-.52,1.78,1.78,0,0,1-.47-1.27V77.7h-25a1.41,1.41,0,0,1-1.11-.47A1.72,1.72,0,0,1,77.05,76Z"/><path class="cls-1" d="M171.8,98.4a4.26,4.26,0,0,1,.18.66.76.76,0,0,1-.86.85h-4.79a1.1,1.1,0,0,1-1-.76L160.42,88H139.88q-.6,0-.6-.66a1.28,1.28,0,0,1,.08-.47l1.89-4.14a1.26,1.26,0,0,1,1.28-.94h15.15L147.24,57,128.58,99.15a1.1,1.1,0,0,1-1,.76h-4.28a.75.75,0,0,1-.85-.85,3.67,3.67,0,0,1,.17-.66l20.28-45.25a3.42,3.42,0,0,1,1-1.27,2.07,2.07,0,0,1,1.32-.52h4a2.05,2.05,0,0,1,1.32.52,3.42,3.42,0,0,1,1,1.27Z"/><path class="cls-1" d="M185.67,53.15a1.9,1.9,0,0,1,.43-1.27,1.35,1.35,0,0,1,1.11-.52h25.68a11.86,11.86,0,0,1,5.26,1.18,13.81,13.81,0,0,1,4.28,3.2,15.13,15.13,0,0,1,2.91,4.7,15.37,15.37,0,0,1,1.07,5.79,15.73,15.73,0,0,1-.77,5,15.23,15.23,0,0,1-2.14,4.24,14.69,14.69,0,0,1-3.25,3.24,12.22,12.22,0,0,1-4,1.93l12.15,18.25a1.3,1.3,0,0,1,.17.66c0,.31-.17.47-.51.47h-5.39a2.3,2.3,0,0,1-1.25-.42,3.89,3.89,0,0,1-1.06-1.08L208.69,81.09h-10a1.43,1.43,0,0,1-1.11-.47,1.72,1.72,0,0,1-.43-1.22V76.48a1.72,1.72,0,0,1,.43-1.22,1.4,1.4,0,0,1,1.11-.47H212a7.53,7.53,0,0,0,5.61-2.45,8.89,8.89,0,0,0,0-12A7.53,7.53,0,0,0,212,57.85H192.26V98.21a1.68,1.68,0,0,1-.47,1.23,1.6,1.6,0,0,1-1.16.47h-3.42a1.43,1.43,0,0,1-1.11-.47,1.74,1.74,0,0,1-.43-1.23Z"/><path class="cls-1" d="M251,93.41h30.38a1.43,1.43,0,0,1,1.07.52,1.85,1.85,0,0,1,.47,1.27v3a1.72,1.72,0,0,1-.47,1.18,1.43,1.43,0,0,1-1.07.52H245.93a1.43,1.43,0,0,1-1.07-.52,1.67,1.67,0,0,1-.47-1.18V53.15a1.78,1.78,0,0,1,.47-1.27,1.4,1.4,0,0,1,1.07-.52h35a1.49,1.49,0,0,1,1.16.52,1.83,1.83,0,0,1,.47,1.27v3a1.69,1.69,0,0,1-.47,1.17,1.49,1.49,0,0,1-1.16.52H251Zm4.7-20.32a1.76,1.76,0,0,1,.43-1.22,1.46,1.46,0,0,1,1.11-.47h21.49a1.5,1.5,0,0,1,1.07.47,1.66,1.66,0,0,1,.47,1.22V76a1.66,1.66,0,0,1-.47,1.22,1.46,1.46,0,0,1-1.07.47H257.22a1.42,1.42,0,0,1-1.11-.47,1.76,1.76,0,0,1-.43-1.22Z"/><path class="cls-1" d="M409.39,97.56a3.67,3.67,0,0,1,.17.66.75.75,0,0,1-.85.85h-4.8a1.09,1.09,0,0,1-1-.76L398,87.12H377.47q-.6,0-.6-.66A1.1,1.1,0,0,1,377,86l1.88-4.14a1.28,1.28,0,0,1,1.29-.94h15.15L384.83,56.17,366.17,98.31a1.1,1.1,0,0,1-1,.76h-4.28a.76.76,0,0,1-.86-.85,4.26,4.26,0,0,1,.18-.66l20.28-45.25a3.42,3.42,0,0,1,1-1.27,2.08,2.08,0,0,1,1.32-.52h4a2.13,2.13,0,0,1,1.32.52,3.42,3.42,0,0,1,1,1.27Z"/><path class="cls-1" d="M423.26,52.31a1.9,1.9,0,0,1,.43-1.27,1.38,1.38,0,0,1,1.11-.52h25.76a11.9,11.9,0,0,1,5.27,1.18,13.38,13.38,0,0,1,4.23,3.2,15.73,15.73,0,0,1,2.87,4.7,16.17,16.17,0,0,1,0,11.57,15.16,15.16,0,0,1-2.87,4.66A13.68,13.68,0,0,1,455.83,79a11.9,11.9,0,0,1-5.27,1.18H436.27a1.43,1.43,0,0,1-1.11-.47,1.74,1.74,0,0,1-.43-1.23V75.55a1.76,1.76,0,0,1,.43-1.23,1.43,1.43,0,0,1,1.11-.47h13.26a7.84,7.84,0,0,0,3.13-.65,8.37,8.37,0,0,0,2.61-1.79A8.19,8.19,0,0,0,457,68.73a8.65,8.65,0,0,0,.65-3.34,8.33,8.33,0,0,0-5-7.72,7.68,7.68,0,0,0-3.13-.66H429.85V97.37a1.68,1.68,0,0,1-.47,1.23,1.6,1.6,0,0,1-1.16.47H424.8a1.43,1.43,0,0,1-1.11-.47,1.74,1.74,0,0,1-.43-1.23Z"/></svg>