<svg id="Layer_1" data-name="Layer 1" xmlns="http://www.w3.org/2000/svg" viewBox="0 0 232 50"><defs><style>.cls-1{fill:#6c04ee;}</style></defs><path class="cls-1" d="M159.64,5.28a7.57,7.57,0,0,0-3.29.72,9.32,9.32,0,0,0-1,.55.54.54,0,0,0-.18.7.42.42,0,0,0,.59.2c.14-.06.27-.13.4-.2a7.27,7.27,0,0,1,7.1,0c.15.08.31.17.47.24a.44.44,0,0,0,.56-.25.47.47,0,0,0-.15-.62,2.94,2.94,0,0,0-.39-.26A8,8,0,0,0,159.64,5.28Zm.06,2.15c-.42.06-.86.09-1.28.17a5.89,5.89,0,0,0-2.18.91.51.51,0,0,0-.18.67.4.4,0,0,0,.57.23c.14-.06.28-.14.42-.21a5.31,5.31,0,0,1,5.06-.1l.65.32a.42.42,0,0,0,.55-.21.46.46,0,0,0-.09-.62,2.19,2.19,0,0,0-.35-.27A6.81,6.81,0,0,0,159.7,7.43Zm0,2.24a4.35,4.35,0,0,0-2.39.67,1.18,1.18,0,0,0-.28.22.54.54,0,0,0-.06.61.38.38,0,0,0,.53.2,4.09,4.09,0,0,0,.47-.23,3.34,3.34,0,0,1,2.47-.33,12,12,0,0,1,1.35.55.43.43,0,0,0,.59-.21.5.5,0,0,0-.14-.67l-.16-.11A4.17,4.17,0,0,0,159.72,9.67Zm-.14,2.05a2.52,2.52,0,0,0-1.63.68.49.49,0,0,0-.09.63.43.43,0,0,0,.59.2l.23-.14a1.83,1.83,0,0,1,2,0c.09.05.18.11.27.15a.44.44,0,0,0,.54-.22.46.46,0,0,0-.06-.58,1.47,1.47,0,0,0-.35-.31A2.91,2.91,0,0,0,159.58,11.72Z"/><path class="cls-1" d="M159.64,5.28a8,8,0,0,1,4.08,1.07,2.94,2.94,0,0,1,.39.26.47.47,0,0,1,.15.62.44.44,0,0,1-.56.25c-.16-.07-.32-.16-.47-.24a7.27,7.27,0,0,0-7.1,0c-.13.07-.26.14-.4.2a.42.42,0,0,1-.59-.2.54.54,0,0,1,.18-.7,9.32,9.32,0,0,1,1-.55A7.57,7.57,0,0,1,159.64,5.28Z"/><path class="cls-1" d="M159.7,7.43a6.81,6.81,0,0,1,3.17.89,2.19,2.19,0,0,1,.35.27.46.46,0,0,1,.09.62.42.42,0,0,1-.55.21l-.65-.32a5.31,5.31,0,0,0-5.06.1c-.14.07-.28.15-.42.21a.4.4,0,0,1-.57-.23.51.51,0,0,1,.18-.67,5.89,5.89,0,0,1,2.18-.91C158.84,7.52,159.28,7.49,159.7,7.43Z"/><path class="cls-1" d="M159.72,9.67a4.17,4.17,0,0,1,2.38.7l.16.11a.5.5,0,0,1,.14.67.43.43,0,0,1-.59.21,12,12,0,0,0-1.35-.55,3.34,3.34,0,0,0-2.47.33,4.09,4.09,0,0,1-.47.23.38.38,0,0,1-.53-.2.54.54,0,0,1,.06-.61,1.18,1.18,0,0,1,.28-.22A4.35,4.35,0,0,1,159.72,9.67Z"/><path class="cls-1" d="M159.58,11.72a2.91,2.91,0,0,1,1.53.42,1.47,1.47,0,0,1,.35.31.46.46,0,0,1,.06.58.44.44,0,0,1-.54.22c-.09,0-.18-.1-.27-.15a1.83,1.83,0,0,0-2,0l-.23.14a.43.43,0,0,1-.59-.2.49.49,0,0,1,.09-.63A2.52,2.52,0,0,1,159.58,11.72Z"/><path class="cls-1" d="M158.66,49.88c-.26-.46-.74-.93-.74-1.39a9.69,9.69,0,0,0-1.77-5.35,18.27,18.27,0,0,1-2.7-7.28,3.8,3.8,0,0,1,.93-3.55c1-.9,2-.49,2.25.86.09.5.09,1.15.72.94.26-.09.51-.76.51-1.16,0-5.16,0-10.33,0-15.49,0-.28,0-.57,0-.86.07-1.28.87-2.2,1.87-2.17a2,2,0,0,1,1.84,2.22c0,3.3,0,6.6,0,9.9a2,2,0,0,0,0,.74,4,4,0,0,0,.54.78c.23-.25.58-.45.67-.75a7.09,7.09,0,0,0,.06-1.39,1.81,1.81,0,1,1,3.61,0c.06,1.21,0,2.43,0,3.65,0,.55,0,1.2.67,1.17s.64-.67.64-1.21c0-.29,0-.58,0-.86a2,2,0,0,1,1.64-1.94,1.74,1.74,0,0,1,1.91,1.58c.15,1,.09,2.07.14,3.1,0,.57-.2,1.41.64,1.4s.54-.8.58-1.34a7.45,7.45,0,0,1,.08-1.06,1.81,1.81,0,0,1,3.61.25c0,3.55.42,7.16-1,10.59a18.67,18.67,0,0,0-.91,6.75,7,7,0,0,1-.65,1.89Z"/><path class="cls-1" d="M150,14.11c.75,0,1.5,0,2.24,0a1.28,1.28,0,0,1,1.35,1.37,1.25,1.25,0,0,1-1.35,1.35c-1.56,0-3.12,0-4.68,0a1.24,1.24,0,0,1-1.34-1.36,1.25,1.25,0,0,1,1.34-1.36C148.34,14.08,149.15,14.11,150,14.11Z"/><path class="cls-1" d="M169.61,16.83c-.74,0-1.49,0-2.24,0A1.24,1.24,0,0,1,166,15.46a1.26,1.26,0,0,1,1.36-1.35c1.56,0,3.12,0,4.68,0a1.23,1.23,0,0,1,1.32,1.37,1.23,1.23,0,0,1-1.35,1.34C171.24,16.86,170.43,16.83,169.61,16.83Z"/><path class="cls-1" d="M21.61,25.53a5,5,0,0,0-2.86.91l-8.32-6.39a6.28,6.28,0,0,0,0-3.22l8.1-6.21a5,5,0,0,0,3.08,1.07,5.6,5.6,0,0,0,5.32-5.84A5.61,5.61,0,0,0,21.61,0a5.6,5.6,0,0,0-5.32,5.85,6.36,6.36,0,0,0,.12,1.24l-8.3,6.37a5,5,0,0,0-2.79-.87A5.6,5.6,0,0,0,0,18.44a5.6,5.6,0,0,0,5.32,5.85,5,5,0,0,0,2.79-.87l8.36,6.42a6.41,6.41,0,0,0-.18,1.53,5.6,5.6,0,0,0,5.32,5.85,5.61,5.61,0,0,0,5.32-5.85A5.61,5.61,0,0,0,21.61,25.53Z"/><path class="cls-1" d="M5.32,24.35a5,5,0,0,0,2.85-.91l8.32,6.38a6.66,6.66,0,0,0-.2,1.62,6.51,6.51,0,0,0,.2,1.61L8.4,39.26a5,5,0,0,0-3.08-1.08A5.6,5.6,0,0,0,0,44a5.6,5.6,0,0,0,5.32,5.85A5.6,5.6,0,0,0,10.64,44a6.28,6.28,0,0,0-.12-1.24l8.3-6.37a4.92,4.92,0,0,0,2.79.86,5.6,5.6,0,0,0,5.32-5.84,5.61,5.61,0,0,0-5.32-5.85,5,5,0,0,0-2.79.86L10.45,20a6.35,6.35,0,0,0,.19-1.53,5.59,5.59,0,0,0-5.32-5.84A5.59,5.59,0,0,0,0,18.5,5.6,5.6,0,0,0,5.32,24.35Z"/><path class="cls-1" d="M32.71,26.57a.88.88,0,0,1,.23-.63.73.73,0,0,1,.57-.26h1.77a.68.68,0,0,1,.55.26,1,1,0,0,1,.21.63V49.06a1,1,0,0,1-.21.63.65.65,0,0,1-.55.26H33.51a.7.7,0,0,1-.57-.26.88.88,0,0,1-.23-.63Zm5.82,9.93a1,1,0,0,1,.21-.64.69.69,0,0,1,.56-.25H51.79v-9a.88.88,0,0,1,.24-.63.73.73,0,0,1,.54-.26h1.69a.77.77,0,0,1,.59.26.88.88,0,0,1,.24.63V49.06a.88.88,0,0,1-.24.63.74.74,0,0,1-.59.26H52.57a.7.7,0,0,1-.54-.26.88.88,0,0,1-.24-.63V38.85H39.3a.74.74,0,0,1-.56-.23.89.89,0,0,1-.21-.61Z"/><path class="cls-1" d="M85.9,49.2a2.13,2.13,0,0,1,.09.33.38.38,0,0,1-.43.42h-2.4a.53.53,0,0,1-.51-.37L80.21,44H69.94q-.3,0-.3-.33a.61.61,0,0,1,0-.24l.94-2.07a.65.65,0,0,1,.65-.47h7.57L73.62,28.5,64.29,49.58a.54.54,0,0,1-.51.37H61.64a.37.37,0,0,1-.43-.42,3,3,0,0,1,.08-.33L71.44,26.57a1.68,1.68,0,0,1,.49-.63,1,1,0,0,1,.66-.26h2a1.09,1.09,0,0,1,.67.26,1.79,1.79,0,0,1,.49.63Z"/><path class="cls-1" d="M92.83,26.57a1,1,0,0,1,.22-.63.7.7,0,0,1,.56-.26h12.83a6,6,0,0,1,2.64.59,6.94,6.94,0,0,1,2.14,1.6,7.8,7.8,0,0,1,1.45,2.35,7.66,7.66,0,0,1,.54,2.89,7.93,7.93,0,0,1-.39,2.5,7.42,7.42,0,0,1-2.7,3.74,6,6,0,0,1-2,1l6.08,9.13a.57.57,0,0,1,.09.32c0,.16-.09.24-.26.24h-2.7a1.15,1.15,0,0,1-.62-.21,1.82,1.82,0,0,1-.53-.54l-5.82-8.71h-5a.72.72,0,0,1-.56-.23.89.89,0,0,1-.21-.61V38.24a.89.89,0,0,1,.21-.61.73.73,0,0,1,.56-.24H106a3.75,3.75,0,0,0,2.8-1.22,4.43,4.43,0,0,0,0-6,3.75,3.75,0,0,0-2.8-1.22H96.13V49.11a.82.82,0,0,1-.24.61.74.74,0,0,1-.57.23H93.61a.7.7,0,0,1-.56-.23.89.89,0,0,1-.22-.61Z"/><path class="cls-1" d="M125.49,46.71h15.19a.7.7,0,0,1,.54.26.92.92,0,0,1,.23.63v1.51a.85.85,0,0,1-.23.58.7.7,0,0,1-.54.26H123a.67.67,0,0,1-.53-.26.82.82,0,0,1-.24-.58V26.57a.88.88,0,0,1,.24-.63.7.7,0,0,1,.53-.26h17.51a.73.73,0,0,1,.57.26.88.88,0,0,1,.24.63v1.51a.84.84,0,0,1-.24.59.73.73,0,0,1-.57.26h-15Zm2.35-10.16a.83.83,0,0,1,.22-.61.69.69,0,0,1,.55-.24h10.74a.75.75,0,0,1,.54.24.8.8,0,0,1,.23.61V38a.81.81,0,0,1-.23.61.78.78,0,0,1-.54.23H128.61a.72.72,0,0,1-.55-.23.85.85,0,0,1-.22-.61Z"/><path class="cls-1" d="M204.7,48.78a3,3,0,0,1,.08.33.37.37,0,0,1-.43.42H202a.56.56,0,0,1-.52-.37L199,43.56H188.73q-.3,0-.3-.33a.52.52,0,0,1,0-.23l.94-2.07a.64.64,0,0,1,.64-.48h7.57l-5.22-12.37-9.33,21.08a.53.53,0,0,1-.51.37h-2.14a.37.37,0,0,1-.43-.42,2.13,2.13,0,0,1,.09-.33l10.14-22.63a1.68,1.68,0,0,1,.49-.63,1.09,1.09,0,0,1,.67-.26h2a1,1,0,0,1,.66.26,1.68,1.68,0,0,1,.49.63Z"/><path class="cls-1" d="M211.63,26.15a1,1,0,0,1,.21-.63.71.71,0,0,1,.56-.26h12.88a6,6,0,0,1,2.63.59,6.53,6.53,0,0,1,2.12,1.6,7.75,7.75,0,0,1,1.43,2.35,8,8,0,0,1,0,5.79A7.37,7.37,0,0,1,230,37.91a6.76,6.76,0,0,1-2.12,1.58,6,6,0,0,1-2.63.59h-7.15a.71.71,0,0,1-.55-.24.83.83,0,0,1-.22-.61V37.77a.85.85,0,0,1,.22-.61.73.73,0,0,1,.55-.23h6.64a3.83,3.83,0,0,0,1.56-.33,4.09,4.09,0,0,0,1.3-.9,3.86,3.86,0,0,0,.88-1.34,4.18,4.18,0,0,0,.32-1.67,4.15,4.15,0,0,0-2.5-3.85,3.83,3.83,0,0,0-1.56-.33h-9.85V48.69a.81.81,0,0,1-.23.61.78.78,0,0,1-.58.23H212.4a.72.72,0,0,1-.56-.23.89.89,0,0,1-.21-.61Z"/></svg>