<?xml version="1.0" encoding="utf-8"?>
<!-- Generator: Adobe Illustrator 27.5.0, SVG Export Plug-In . SVG Version: 6.00 Build 0)  -->
<svg version="1.1" xmlns="http://www.w3.org/2000/svg" xmlns:xlink="http://www.w3.org/1999/xlink" x="0px" y="0px"
	 viewBox="0 0 500 500" style="enable-background:new 0 0 500 500;" xml:space="preserve">
<g id="BACKGROUND">
</g>
<g id="OBJECTS">
	<path style="fill:#A6EAFF;" d="M179.921,96.924c-13.706,17.632-18.531,40.705-31.071,59.185
		c-13.728,20.231-35.378,33.263-56.644,44.314c-19.437,10.1-41.39,21.637-48.555,44.057c-7.621,23.847,6.857,50.164,27.261,64.67
		c20.404,14.506,45.596,20.098,69.805,26.477c41.236,10.865,81.712,24.953,120.215,43.349
		c39.104,18.683,78.48,42.722,122.306,48.319c20.268,2.588,42.567-1.236,57.121-15.576c10.739-10.581,16.046-25.702,17.52-40.706
		c3.053-31.079-8.02-61.085-8.551-91.959c-0.241-13.995,1.758-27.916,3.312-41.827c4.546-40.705-1.545-73.114-28.578-105.521
		c-32.545-39.015-80.08-65.196-130.449-71.849C253.521,54.562,206.096,63.25,179.921,96.924z"/>
	<g>
		<g>
			<path style="fill:#6B7694;" d="M247.601,97.619l-3.065-1.77l0,0L126.305,27.589l-6.623-3.824
				c-1.07-0.618-2.038-0.703-2.742-0.344l-0.002-0.001l-19.91,9.96l-1.243,16.126v341.33l120.601,74.441l14.028,11.263l19.825-9.915
				l-0.007-0.009c0.774-0.334,1.268-1.159,1.268-2.404V104.143C251.5,101.783,249.754,98.862,247.601,97.619z"/>
			<path style="fill:#404B69;" d="M251.499,464.211V104.143c0-1.193-0.448-2.528-1.167-3.719l-20.915,8.736v4.673l2.083,0.31
				v361.852l18.739-9.372l-0.007-0.009C251.006,466.281,251.499,465.456,251.499,464.211z"/>
			<g>
				<path style="fill:#283149;" d="M227.602,476.234L99.682,402.379c-2.153-1.243-3.898-4.164-3.898-6.524V35.788
					c0-2.36,1.745-3.266,3.898-2.023l127.919,73.854c2.153,1.243,3.898,4.164,3.898,6.524v360.068
					C231.5,476.571,229.754,477.477,227.602,476.234z"/>
			</g>
			<g>
				<path style="fill:#FFFFFF;" d="M220.093,459.165l-112.902-65.184c-1.9-1.097-3.44-3.675-3.44-5.758V49.883
					c0-2.083,1.54-2.882,3.44-1.785l112.902,65.184c1.9,1.097,3.441,3.675,3.441,5.758v338.34
					C223.533,459.463,221.993,460.262,220.093,459.165z"/>
			</g>
			<g>
				<g>
					<g>
						<path style="fill:#283149;" d="M147.116,218.281l-26.933-15.55v-31.1l26.933,15.55V218.281z M123.94,200.562l19.417,11.21
							v-22.421l-19.417-11.21V200.562z"/>
					</g>
					<polygon style="fill:#283149;" points="138.973,204.178 128.325,198.03 128.325,185.735 138.973,191.883 					"/>
					<g>
						<path style="fill:#283149;" d="M147.116,283.374l-26.933-15.55v-31.1l26.933,15.55V283.374z M123.94,265.655l19.417,11.21
							v-22.421l-19.417-11.21V265.655z"/>
					</g>
					<polygon style="fill:#283149;" points="138.973,269.271 128.325,263.123 128.325,250.828 138.973,256.975 					"/>
					<g>
						<path style="fill:#283149;" d="M203.488,250.828l-26.933-15.55v-31.1l26.933,15.55V250.828z M180.313,233.108l19.417,11.21
							v-22.421l-19.417-11.21V233.108z"/>
					</g>
					<polygon style="fill:#283149;" points="196.761,238.168 185.771,231.823 185.771,219.133 196.761,225.478 					"/>
					<polygon style="fill:#283149;" points="155.565,199.063 151.379,196.646 151.379,191.813 155.565,194.23 					"/>
					<polygon style="fill:#283149;" points="159.751,206.313 155.565,203.896 155.565,199.063 159.751,201.48 					"/>
					<polygon style="fill:#283149;" points="163.937,208.73 159.751,206.313 159.751,201.48 163.937,203.896 					"/>
					<polygon style="fill:#283149;" points="159.751,211.146 155.565,208.73 155.565,203.896 159.751,206.313 					"/>
					<polygon style="fill:#283149;" points="155.565,218.396 151.379,215.98 151.379,211.146 155.565,213.563 					"/>
					<polygon style="fill:#283149;" points="159.751,220.813 155.565,218.396 155.565,213.563 159.751,215.98 					"/>
					<polygon style="fill:#283149;" points="163.937,223.23 159.751,220.813 159.751,215.98 163.937,218.396 					"/>
					<polygon style="fill:#283149;" points="168.122,225.646 163.937,223.23 163.937,218.396 168.122,220.813 					"/>
					<polygon style="fill:#283149;" points="168.122,220.813 163.937,218.396 163.937,213.563 168.122,215.98 					"/>
					<polygon style="fill:#283149;" points="172.308,218.396 168.122,215.98 168.122,211.146 172.308,213.563 					"/>
					<polygon style="fill:#283149;" points="168.122,206.313 163.937,203.896 163.937,199.063 168.122,201.48 					"/>
					<polygon style="fill:#283149;" points="172.308,213.563 168.122,211.146 168.122,206.313 172.308,208.73 					"/>
					<polygon style="fill:#283149;" points="172.308,228.063 168.122,225.646 168.122,220.813 172.308,223.23 					"/>
					<polygon style="fill:#283149;" points="172.308,232.896 168.122,230.48 168.122,225.646 172.308,228.063 					"/>
					<polygon style="fill:#283149;" points="151.379,230.48 147.193,228.063 147.193,223.23 151.379,225.646 					"/>
					<polygon style="fill:#283149;" points="147.193,228.063 143.007,225.646 143.007,220.813 147.193,223.23 					"/>
					<polygon style="fill:#283149;" points="143.007,225.646 138.822,223.23 138.822,218.396 143.007,220.813 					"/>
					<polygon style="fill:#283149;" points="134.636,220.813 130.45,218.396 130.45,213.563 134.636,215.979 					"/>
					<polygon style="fill:#283149;" points="126.264,215.979 122.078,213.563 122.078,208.729 126.264,211.146 					"/>
					<polygon style="fill:#283149;" points="134.636,235.313 130.45,232.896 130.45,228.063 134.636,230.48 					"/>
					<polygon style="fill:#283149;" points="134.636,240.146 130.45,237.729 130.45,232.896 134.636,235.313 					"/>
					<polygon style="fill:#283149;" points="138.822,242.563 134.636,240.146 134.636,235.313 138.822,237.73 					"/>
					<polygon style="fill:#283149;" points="143.007,244.98 138.822,242.563 138.822,237.73 143.007,240.146 					"/>
					<polygon style="fill:#283149;" points="147.193,247.396 143.007,244.98 143.007,240.146 147.193,242.563 					"/>
					<polygon style="fill:#283149;" points="147.193,242.563 143.007,240.146 143.007,235.313 147.193,237.73 					"/>
					<polygon style="fill:#283149;" points="147.193,237.73 143.007,235.313 143.007,230.48 147.193,232.896 					"/>
					<polygon style="fill:#283149;" points="151.379,240.146 147.193,237.73 147.193,232.896 151.379,235.313 					"/>
					<polygon style="fill:#283149;" points="155.565,252.23 151.379,249.813 151.379,244.98 155.565,247.396 					"/>
					<polygon style="fill:#283149;" points="155.565,247.396 151.379,244.98 151.379,240.146 155.565,242.563 					"/>
					<polygon style="fill:#283149;" points="159.751,249.813 155.565,247.396 155.565,242.563 159.751,244.98 					"/>
					<polygon style="fill:#283149;" points="163.937,252.23 159.751,249.813 159.751,244.98 163.937,247.396 					"/>
					<polygon style="fill:#283149;" points="168.122,254.646 163.937,252.23 163.937,247.396 168.122,249.813 					"/>
					<polygon style="fill:#283149;" points="172.308,261.896 168.122,259.48 168.122,254.646 172.308,257.063 					"/>
					<polygon style="fill:#283149;" points="172.308,266.73 168.122,264.313 168.122,259.48 172.308,261.896 					"/>
					<polygon style="fill:#283149;" points="176.494,273.98 172.308,271.563 172.308,266.73 176.494,269.146 					"/>
					<polygon style="fill:#283149;" points="151.379,249.813 147.193,247.396 147.193,242.563 151.379,244.98 					"/>
					<polygon style="fill:#283149;" points="130.45,232.896 126.264,230.479 126.264,225.646 130.45,228.063 					"/>
					<polygon style="fill:#283149;" points="138.822,228.063 134.636,225.646 134.636,220.813 138.822,223.23 					"/>
					<polygon style="fill:#283149;" points="138.822,232.896 134.636,230.48 134.636,225.646 138.822,228.063 					"/>
					<polygon style="fill:#283149;" points="134.636,230.48 130.45,228.063 130.45,223.229 134.636,225.646 					"/>
					<polygon style="fill:#283149;" points="130.45,228.063 126.264,225.646 126.264,220.813 130.45,223.229 					"/>
					<polygon style="fill:#283149;" points="130.45,223.229 126.264,220.813 126.264,215.979 130.45,218.396 					"/>
					<polygon style="fill:#283149;" points="126.264,225.646 122.078,223.229 122.078,218.396 126.264,220.813 					"/>
					<polygon style="fill:#283149;" points="155.565,213.563 151.379,211.146 151.379,206.313 155.565,208.73 					"/>
					<polygon style="fill:#283149;" points="155.565,223.23 151.379,220.813 151.379,215.98 155.565,218.396 					"/>
					<polygon style="fill:#283149;" points="155.565,228.063 151.379,225.646 151.379,220.813 155.565,223.23 					"/>
					<polygon style="fill:#283149;" points="155.565,232.896 151.379,230.48 151.379,225.646 155.565,228.063 					"/>
					<polygon style="fill:#283149;" points="155.565,237.73 151.379,235.313 151.379,230.48 155.565,232.896 					"/>
					<polygon style="fill:#283149;" points="159.751,240.146 155.565,237.73 155.565,232.896 159.751,235.313 					"/>
					<polygon style="fill:#283149;" points="163.937,242.563 159.751,240.146 159.751,235.313 163.937,237.73 					"/>
					<polygon style="fill:#283149;" points="168.122,244.98 163.937,242.563 163.937,237.73 168.122,240.146 					"/>
					<polygon style="fill:#283149;" points="163.937,237.73 159.751,235.313 159.751,230.48 163.937,232.896 					"/>
					<polygon style="fill:#283149;" points="172.308,242.563 168.122,240.146 168.122,235.313 172.308,237.73 					"/>
					<polygon style="fill:#283149;" points="176.494,244.98 172.308,242.563 172.308,237.73 176.494,240.146 					"/>
					<polygon style="fill:#283149;" points="180.68,247.396 176.494,244.98 176.494,240.146 180.68,242.563 					"/>
					<polygon style="fill:#283149;" points="184.866,249.813 180.68,247.396 180.68,242.563 184.866,244.98 					"/>
					<polygon style="fill:#283149;" points="189.052,252.23 184.866,249.813 184.866,244.98 189.052,247.396 					"/>
					<polygon style="fill:#283149;" points="193.237,254.646 189.052,252.23 189.052,247.396 193.237,249.813 					"/>
					<polygon style="fill:#283149;" points="193.237,259.48 189.052,257.063 189.052,252.23 193.237,254.646 					"/>
					<polygon style="fill:#283149;" points="180.68,257.063 176.494,254.646 176.494,249.813 180.68,252.23 					"/>
					<polygon style="fill:#283149;" points="176.494,254.646 172.308,252.23 172.308,247.396 176.494,249.813 					"/>
					<polygon style="fill:#283149;" points="176.494,249.813 172.308,247.396 172.308,242.563 176.494,244.98 					"/>
					<polygon style="fill:#283149;" points="172.308,252.23 168.122,249.813 168.122,244.98 172.308,247.396 					"/>
					<polygon style="fill:#283149;" points="189.052,266.73 184.866,264.313 184.866,259.48 189.052,261.896 					"/>
					<polygon style="fill:#283149;" points="189.052,271.563 184.866,269.146 184.866,264.313 189.052,266.73 					"/>
					<polygon style="fill:#283149;" points="193.237,273.98 189.052,271.563 189.052,266.73 193.237,269.146 					"/>
					<polygon style="fill:#283149;" points="197.423,276.396 193.237,273.98 193.237,269.146 197.423,271.563 					"/>
					<polygon style="fill:#283149;" points="197.423,281.23 193.237,278.813 193.237,273.98 197.423,276.396 					"/>
					<polygon style="fill:#283149;" points="197.423,286.063 193.237,283.646 193.237,278.813 197.423,281.23 					"/>
					<polygon style="fill:#283149;" points="189.052,286.063 184.866,283.646 184.866,278.813 189.052,281.23 					"/>
					<polygon style="fill:#283149;" points="189.052,300.6 184.866,298.184 184.866,293.35 189.052,295.767 					"/>
					<polygon style="fill:#283149;" points="201.609,293.313 197.423,290.896 197.423,286.063 201.609,288.48 					"/>
					<polygon style="fill:#283149;" points="201.609,312.646 197.423,310.23 197.423,305.396 201.609,307.813 					"/>
					<polygon style="fill:#283149;" points="184.866,302.98 180.68,300.563 180.68,295.73 184.866,298.146 					"/>
					<polygon style="fill:#283149;" points="180.68,300.563 176.494,298.146 176.494,293.313 180.68,295.73 					"/>
					<polygon style="fill:#283149;" points="176.494,298.146 172.308,295.73 172.308,290.896 176.494,293.313 					"/>
					<polygon style="fill:#283149;" points="172.308,295.73 168.122,293.313 168.122,288.48 172.308,290.896 					"/>
					<polygon style="fill:#283149;" points="176.494,293.313 172.308,290.896 172.308,286.063 176.494,288.48 					"/>
					<polygon style="fill:#283149;" points="172.308,290.896 168.122,288.48 168.122,283.646 172.308,286.063 					"/>
					<polygon style="fill:#283149;" points="176.494,288.48 172.308,286.063 172.308,281.23 176.494,283.646 					"/>
					<polygon style="fill:#283149;" points="176.494,283.646 172.308,281.23 172.308,276.396 176.494,278.813 					"/>
					<polygon style="fill:#283149;" points="172.308,276.396 168.122,273.98 168.122,269.146 172.308,271.563 					"/>
					<polygon style="fill:#283149;" points="168.122,273.98 163.937,271.563 163.937,266.73 168.122,269.146 					"/>
					<polygon style="fill:#283149;" points="163.937,271.563 159.751,269.146 159.751,264.313 163.937,266.73 					"/>
					<polygon style="fill:#283149;" points="159.751,269.146 155.565,266.73 155.565,261.896 159.751,264.313 					"/>
					<polygon style="fill:#283149;" points="168.122,278.813 163.937,276.396 163.937,271.563 168.122,273.98 					"/>
					<polygon style="fill:#283149;" points="163.937,276.396 159.751,273.98 159.751,269.146 163.937,271.563 					"/>
					<polygon style="fill:#283149;" points="155.565,281.23 151.379,278.813 151.379,273.979 155.565,276.396 					"/>
					<polygon style="fill:#283149;" points="155.565,261.896 151.379,259.479 151.379,254.646 155.565,257.063 					"/>
					<polygon style="fill:#283149;" points="159.751,273.98 155.565,271.563 155.565,266.73 159.751,269.146 					"/>
					<polygon style="fill:#283149;" points="163.937,281.23 159.751,278.813 159.751,273.98 163.937,276.396 					"/>
					<polygon style="fill:#283149;" points="159.751,278.813 155.565,276.396 155.565,271.563 159.751,273.98 					"/>
					<polygon style="fill:#283149;" points="163.937,286.063 159.751,283.646 159.751,278.813 163.937,281.23 					"/>
					<polygon style="fill:#283149;" points="159.751,288.48 155.565,286.063 155.565,281.23 159.751,283.646 					"/>
					<polygon style="fill:#283149;" points="168.122,269.146 163.937,266.73 163.937,261.896 168.122,264.313 					"/>
					<polygon style="fill:#283149;" points="163.937,266.73 159.751,264.313 159.751,259.48 163.937,261.896 					"/>
					<polygon style="fill:#283149;" points="159.751,264.313 155.565,261.896 155.565,257.063 159.751,259.48 					"/>
					<polygon style="fill:#283149;" points="163.937,261.896 159.751,259.48 159.751,254.646 163.937,257.063 					"/>
					<polygon style="fill:#283149;" points="163.937,257.063 159.751,254.646 159.751,249.813 163.937,252.23 					"/>
					<polygon style="fill:#283149;" points="159.751,259.48 155.565,257.063 155.565,252.23 159.751,254.646 					"/>
					<polygon style="fill:#283149;" points="155.565,266.73 151.379,264.313 151.379,259.479 155.565,261.896 					"/>
					<polygon style="fill:#283149;" points="172.308,286.063 168.122,283.646 168.122,278.813 172.308,281.23 					"/>
					<polygon style="fill:#283149;" points="168.122,293.313 163.937,290.896 163.937,286.063 168.122,288.48 					"/>
					<polygon style="fill:#283149;" points="180.68,281.23 176.494,278.813 176.494,273.98 180.68,276.396 					"/>
					<polygon style="fill:#283149;" points="184.866,288.48 180.68,286.063 180.68,281.23 184.866,283.646 					"/>
					<polygon style="fill:#283149;" points="197.423,295.73 193.237,293.313 193.237,288.48 197.423,290.896 					"/>
					<polygon style="fill:#283149;" points="197.423,300.563 193.237,298.146 193.237,293.313 197.423,295.73 					"/>
					<polygon style="fill:#283149;" points="193.237,298.146 189.052,295.73 189.052,290.896 193.237,293.313 					"/>
					<polygon style="fill:#283149;" points="189.052,295.73 184.866,293.313 184.866,288.48 189.052,290.896 					"/>
					<polygon style="fill:#283149;" points="184.866,293.313 180.68,290.896 180.68,286.063 184.866,288.48 					"/>
					<polygon style="fill:#283149;" points="197.423,305.396 193.237,302.98 193.237,298.146 197.423,300.563 					"/>
					<polygon style="fill:#283149;" points="197.423,310.23 193.237,307.813 193.237,302.98 197.423,305.396 					"/>
					<polygon style="fill:#283149;" points="189.052,276.396 184.866,273.98 184.866,269.146 189.052,271.563 					"/>
					<polygon style="fill:#283149;" points="184.866,264.313 180.68,261.896 180.68,257.063 184.866,259.48 					"/>
					<polygon style="fill:#283149;" points="184.866,269.146 180.68,266.73 180.68,261.896 184.866,264.313 					"/>
					<polygon style="fill:#283149;" points="184.866,273.98 180.68,271.563 180.68,266.73 184.866,269.146 					"/>
					<polygon style="fill:#283149;" points="180.68,276.396 176.494,273.98 176.494,269.146 180.68,271.563 					"/>
					<polygon style="fill:#283149;" points="180.68,266.73 176.494,264.313 176.494,259.48 180.68,261.896 					"/>
					<polygon style="fill:#283149;" points="180.68,271.563 176.494,269.146 176.494,264.313 180.68,266.73 					"/>
					<polygon style="fill:#283149;" points="189.052,261.896 184.866,259.48 184.866,254.646 189.052,257.063 					"/>
					<polygon style="fill:#283149;" points="189.052,281.23 184.866,278.813 184.866,273.98 189.052,276.396 					"/>
					<polygon style="fill:#283149;" points="193.237,283.646 189.052,281.23 189.052,276.396 193.237,278.813 					"/>
					<polygon style="fill:#283149;" points="197.423,261.896 193.237,259.48 193.237,254.646 197.423,257.063 					"/>
					<polygon style="fill:#283149;" points="197.423,266.73 193.237,264.313 193.237,259.48 197.423,261.896 					"/>
					<polygon style="fill:#283149;" points="201.609,259.48 197.423,257.063 197.423,252.23 201.609,254.646 					"/>
					<polygon style="fill:#283149;" points="201.609,273.98 197.423,271.563 197.423,266.73 201.609,269.146 					"/>
					<polygon style="fill:#283149;" points="163.937,232.896 159.751,230.48 159.751,225.646 163.937,228.063 					"/>
					<polygon style="fill:#283149;" points="168.122,235.313 163.937,232.896 163.937,228.063 168.122,230.48 					"/>
				</g>
				<g>
					<g>
						<polygon style="fill:#F73859;" points="115.554,178.113 112.093,176.114 112.093,159.573 126.418,167.844 126.418,171.84 
							115.554,165.568 						"/>
					</g>
					<g>
						<polygon style="fill:#F73859;" points="126.418,278.813 112.093,270.542 112.093,254.001 115.554,255.999 115.554,268.544 
							126.418,274.816 						"/>
					</g>
					<g>
						<polygon style="fill:#F73859;" points="211.577,327.979 197.252,319.708 197.252,315.712 208.116,321.984 208.116,309.44 
							211.577,311.438 						"/>
					</g>
					<g>
						<polygon style="fill:#F73859;" points="211.577,233.551 208.116,231.553 208.116,219.008 197.252,212.736 197.252,208.74 
							211.577,217.01 						"/>
					</g>
				</g>
			</g>
			<path style="fill:#6B7694;" d="M223.533,129.219V119.04c0-2.083-1.54-4.661-3.44-5.758L107.191,48.097
				c-1.9-1.097-3.44-0.298-3.44,1.785v10.179L223.533,129.219z"/>
			<g>
				<path style="fill:#283149;" d="M243.195,145.921c-0.019-0.015-0.037-0.029-0.056-0.042l-0.027-0.021l-0.011,0.001
					c-0.39-0.254-0.906-0.255-1.478,0.075c-1.208,0.697-2.188,2.569-2.188,4.18v26.259c0,0.965,0.356,1.609,0.898,1.827l0,0.008
					l1.95,1.462l2.136-1.642l0.618-30.71L243.195,145.921z"/>
				<path style="fill:#6B7694;" d="M243.81,179.616L243.81,179.616c-1.208,0.698-2.188-0.043-2.188-1.654v-26.259
					c0-1.611,0.979-3.482,2.188-4.18l0,0c1.208-0.698,2.188,0.043,2.188,1.654v26.259
					C245.998,177.047,245.018,178.919,243.81,179.616z"/>
			</g>
			<g>
				<path style="fill:#283149;" d="M243.195,187.93c-0.019-0.015-0.037-0.029-0.056-0.042l-0.027-0.021l-0.011,0.001
					c-0.39-0.254-0.906-0.255-1.478,0.075c-1.208,0.698-2.188,2.569-2.188,4.18v26.259c0,0.965,0.356,1.609,0.898,1.827l0,0.008
					l1.95,1.462l2.136-1.642l0.618-30.71L243.195,187.93z"/>
				<path style="fill:#6B7694;" d="M243.81,221.626L243.81,221.626c-1.208,0.697-2.188-0.043-2.188-1.654v-26.259
					c0-1.611,0.979-3.482,2.188-4.18l0,0c1.208-0.698,2.188,0.043,2.188,1.654v26.259
					C245.998,219.057,245.018,220.928,243.81,221.626z"/>
			</g>
			<g>
				<path style="fill:#283149;" d="M243.195,259.367c-0.019-0.015-0.037-0.029-0.056-0.043l-0.027-0.021l-0.011,0.001
					c-0.39-0.254-0.906-0.255-1.478,0.075c-1.208,0.698-2.188,2.569-2.188,4.18v26.259c0,0.965,0.356,1.609,0.898,1.827l0,0.008
					l1.95,1.462l2.136-1.642l0.618-30.71L243.195,259.367z"/>
				<path style="fill:#6B7694;" d="M243.81,293.063L243.81,293.063c-1.208,0.698-2.188-0.043-2.188-1.654v-26.259
					c0-1.611,0.979-3.482,2.188-4.18l0,0c1.208-0.698,2.188,0.043,2.188,1.654v26.259
					C245.998,290.494,245.018,292.365,243.81,293.063z"/>
			</g>
			
				<text transform="matrix(0.866 0.5 0 1 122.0932 305.3958)" style="fill:#283149; font-family:'Montserrat-SemiBold'; font-size:14.6159px;">SCANNING...</text>
			<g>
				<g>
					<path style="fill:#FFFFFF;" d="M217.835,121.572l-8.069-4.658v-5.059l8.069,4.658V121.572z M210.18,116.751l7.243,4.182v-4.257
						l-7.243-4.182V116.751z"/>
				</g>
				<polygon style="fill:#FFFFFF;" points="211.895,117.202 210.599,116.454 210.599,113.275 211.895,114.023 				"/>
				<polygon style="fill:#FFFFFF;" points="213.579,118.175 212.284,117.426 212.284,114.248 213.579,114.996 				"/>
				<polygon style="fill:#FFFFFF;" points="215.264,119.147 213.968,118.399 213.968,115.22 215.264,115.969 				"/>
				<polygon style="fill:#FFFFFF;" points="218.924,121.261 217.629,120.512 217.629,117.334 218.924,118.082 				"/>
			</g>
			<g>
				<polygon style="fill:#FFFFFF;" points="199.085,110.747 197.971,110.104 197.971,107.574 199.085,108.217 				"/>
				<polygon style="fill:#FFFFFF;" points="200.867,111.775 199.753,111.132 199.753,107.832 200.867,108.475 				"/>
				<polygon style="fill:#FFFFFF;" points="202.649,112.804 201.536,112.161 201.536,107.941 202.649,108.584 				"/>
				<polygon style="fill:#FFFFFF;" points="204.432,113.833 203.318,113.19 203.318,108.131 204.432,108.774 				"/>
			</g>
			
				<text transform="matrix(0.866 0.5 0 1 106.54 56.3999)" style="fill:#FFFFFF; font-family:'Montserrat-SemiBold'; font-size:5.6807px;">04.20 PM</text>
			<polygon style="fill:#F73859;" points="103.75,182.609 223.533,251.766 223.533,248.303 103.75,179.146 			"/>
		</g>
		<g>
			<polygon style="fill:#A8D3E3;" points="386.369,349.626 420.149,366.22 420.149,194.347 386.369,217.334 			"/>
			<polygon style="fill:#FFFFFF;" points="268.929,149.53 268.929,288.807 386.369,349.626 386.369,217.334 			"/>
			<g>
				<g>
					<path style="fill:#283149;" d="M311.512,223.773l-29.527-17.047v-34.094l29.527,17.047V223.773z M286.106,204.347l21.287,12.29
						v-24.579l-21.287-12.29V204.347z"/>
				</g>
				<polygon style="fill:#283149;" points="302.586,208.311 290.913,201.572 290.913,188.093 302.586,194.832 				"/>
				<g>
					<path style="fill:#283149;" d="M311.512,295.133l-29.527-17.047v-34.094l29.527,17.047V295.133z M286.106,275.707l21.287,12.29
						v-24.579l-21.287-12.29V275.707z"/>
				</g>
				<polygon style="fill:#283149;" points="302.586,279.671 290.913,272.932 290.913,259.453 302.586,266.192 				"/>
				<g>
					<path style="fill:#283149;" d="M373.312,259.453l-29.526-17.047v-34.094l29.526,17.047V259.453z M347.906,240.027l21.287,12.29
						v-24.579l-21.287-12.29V240.027z"/>
				</g>
				<polygon style="fill:#283149;" points="365.937,245.574 353.89,238.618 353.89,224.707 365.937,231.663 				"/>
				<polygon style="fill:#283149;" points="320.775,202.704 316.186,200.055 316.186,194.756 320.775,197.405 				"/>
				<polygon style="fill:#283149;" points="325.364,210.652 320.775,208.003 320.775,202.704 325.364,205.353 				"/>
				<polygon style="fill:#283149;" points="329.953,213.301 325.364,210.652 325.364,205.353 329.953,208.003 				"/>
				<polygon style="fill:#283149;" points="325.364,215.951 320.775,213.301 320.775,208.003 325.364,210.652 				"/>
				<polygon style="fill:#283149;" points="320.775,223.899 316.186,221.249 316.186,215.951 320.775,218.6 				"/>
				<polygon style="fill:#283149;" points="325.364,226.548 320.775,223.899 320.775,218.6 325.364,221.249 				"/>
				<polygon style="fill:#283149;" points="329.953,229.197 325.364,226.548 325.364,221.249 329.953,223.899 				"/>
				<polygon style="fill:#283149;" points="334.542,231.847 329.953,229.197 329.953,223.899 334.542,226.548 				"/>
				<polygon style="fill:#283149;" points="334.542,226.548 329.953,223.899 329.953,218.6 334.542,221.249 				"/>
				<polygon style="fill:#283149;" points="339.13,223.899 334.542,221.249 334.542,215.951 339.13,218.6 				"/>
				<polygon style="fill:#283149;" points="334.542,210.652 329.953,208.003 329.953,202.704 334.542,205.353 				"/>
				<polygon style="fill:#283149;" points="339.13,218.6 334.542,215.951 334.542,210.652 339.13,213.301 				"/>
				<polygon style="fill:#283149;" points="339.13,234.496 334.542,231.847 334.542,226.548 339.13,229.197 				"/>
				<polygon style="fill:#283149;" points="339.13,239.795 334.542,237.145 334.542,231.847 339.13,234.496 				"/>
				<polygon style="fill:#283149;" points="316.186,237.145 311.598,234.496 311.598,229.197 316.186,231.847 				"/>
				<polygon style="fill:#283149;" points="311.598,234.496 307.009,231.847 307.009,226.548 311.598,229.197 				"/>
				<polygon style="fill:#283149;" points="307.009,231.847 302.42,229.197 302.42,223.898 307.009,226.548 				"/>
				<polygon style="fill:#283149;" points="297.831,226.548 293.242,223.898 293.242,218.6 297.831,221.249 				"/>
				<polygon style="fill:#283149;" points="288.654,221.249 284.065,218.6 284.065,213.301 288.654,215.951 				"/>
				<polygon style="fill:#283149;" points="297.831,242.444 293.242,239.794 293.242,234.496 297.831,237.145 				"/>
				<polygon style="fill:#283149;" points="297.831,247.743 293.242,245.093 293.242,239.794 297.831,242.444 				"/>
				<polygon style="fill:#283149;" points="302.42,250.392 297.831,247.743 297.831,242.444 302.42,245.093 				"/>
				<polygon style="fill:#283149;" points="307.009,253.041 302.42,250.392 302.42,245.093 307.009,247.743 				"/>
				<polygon style="fill:#283149;" points="311.598,255.691 307.009,253.041 307.009,247.743 311.598,250.392 				"/>
				<polygon style="fill:#283149;" points="311.598,250.392 307.009,247.743 307.009,242.444 311.598,245.093 				"/>
				<polygon style="fill:#283149;" points="311.598,245.093 307.009,242.444 307.009,237.145 311.598,239.795 				"/>
				<polygon style="fill:#283149;" points="316.186,247.743 311.598,245.093 311.598,239.795 316.186,242.444 				"/>
				<polygon style="fill:#283149;" points="320.775,260.989 316.186,258.34 316.186,253.041 320.775,255.691 				"/>
				<polygon style="fill:#283149;" points="320.775,255.691 316.186,253.041 316.186,247.743 320.775,250.392 				"/>
				<polygon style="fill:#283149;" points="325.364,258.34 320.775,255.691 320.775,250.392 325.364,253.041 				"/>
				<polygon style="fill:#283149;" points="329.953,260.989 325.364,258.34 325.364,253.041 329.953,255.691 				"/>
				<polygon style="fill:#283149;" points="334.542,263.639 329.953,260.989 329.953,255.691 334.542,258.34 				"/>
				<polygon style="fill:#283149;" points="339.13,271.587 334.542,268.937 334.542,263.639 339.13,266.288 				"/>
				<polygon style="fill:#283149;" points="339.13,276.885 334.542,274.236 334.542,268.937 339.13,271.587 				"/>
				<polygon style="fill:#283149;" points="343.719,284.833 339.13,282.184 339.13,276.885 343.719,279.535 				"/>
				<polygon style="fill:#283149;" points="316.186,258.34 311.598,255.691 311.598,250.392 316.186,253.041 				"/>
				<polygon style="fill:#283149;" points="293.242,239.794 288.654,237.145 288.654,231.846 293.242,234.496 				"/>
				<polygon style="fill:#283149;" points="302.42,234.496 297.831,231.846 297.831,226.548 302.42,229.197 				"/>
				<polygon style="fill:#283149;" points="302.42,239.795 297.831,237.145 297.831,231.846 302.42,234.496 				"/>
				<polygon style="fill:#283149;" points="297.831,237.145 293.242,234.496 293.242,229.197 297.831,231.846 				"/>
				<polygon style="fill:#283149;" points="293.242,234.496 288.654,231.846 288.654,226.548 293.242,229.197 				"/>
				<polygon style="fill:#283149;" points="293.242,229.197 288.654,226.548 288.654,221.249 293.242,223.898 				"/>
				<polygon style="fill:#283149;" points="288.654,231.846 284.065,229.197 284.065,223.898 288.654,226.548 				"/>
				<polygon style="fill:#283149;" points="320.775,218.6 316.186,215.951 316.186,210.652 320.775,213.301 				"/>
				<polygon style="fill:#283149;" points="320.775,229.197 316.186,226.548 316.186,221.249 320.775,223.899 				"/>
				<polygon style="fill:#283149;" points="320.775,234.496 316.186,231.847 316.186,226.548 320.775,229.197 				"/>
				<polygon style="fill:#283149;" points="320.775,239.795 316.186,237.145 316.186,231.847 320.775,234.496 				"/>
				<polygon style="fill:#283149;" points="320.775,245.093 316.186,242.444 316.186,237.145 320.775,239.795 				"/>
				<polygon style="fill:#283149;" points="325.364,247.743 320.775,245.093 320.775,239.795 325.364,242.444 				"/>
				<polygon style="fill:#283149;" points="329.953,250.392 325.364,247.743 325.364,242.444 329.953,245.093 				"/>
				<polygon style="fill:#283149;" points="334.542,253.041 329.953,250.392 329.953,245.093 334.542,247.743 				"/>
				<polygon style="fill:#283149;" points="329.953,245.093 325.364,242.444 325.364,237.145 329.953,239.795 				"/>
				<polygon style="fill:#283149;" points="339.13,250.392 334.542,247.743 334.542,242.444 339.13,245.093 				"/>
				<polygon style="fill:#283149;" points="343.719,253.041 339.13,250.392 339.13,245.093 343.719,247.743 				"/>
				<polygon style="fill:#283149;" points="348.308,255.691 343.719,253.041 343.719,247.743 348.308,250.392 				"/>
				<polygon style="fill:#283149;" points="352.897,258.34 348.308,255.691 348.308,250.392 352.897,253.041 				"/>
				<polygon style="fill:#283149;" points="357.486,260.99 352.897,258.34 352.897,253.041 357.486,255.691 				"/>
				<polygon style="fill:#283149;" points="362.075,263.639 357.486,260.99 357.486,255.691 362.075,258.34 				"/>
				<polygon style="fill:#283149;" points="362.075,268.938 357.486,266.288 357.486,260.99 362.075,263.639 				"/>
				<polygon style="fill:#283149;" points="348.308,266.288 343.719,263.639 343.719,258.34 348.308,260.99 				"/>
				<polygon style="fill:#283149;" points="343.719,263.639 339.13,260.989 339.13,255.691 343.719,258.34 				"/>
				<polygon style="fill:#283149;" points="343.719,258.34 339.13,255.691 339.13,250.392 343.719,253.041 				"/>
				<polygon style="fill:#283149;" points="339.13,260.989 334.542,258.34 334.542,253.041 339.13,255.691 				"/>
				<polygon style="fill:#283149;" points="357.486,276.885 352.897,274.236 352.897,268.938 357.486,271.587 				"/>
				<polygon style="fill:#283149;" points="357.486,282.184 352.897,279.535 352.897,274.236 357.486,276.885 				"/>
				<polygon style="fill:#283149;" points="362.075,284.834 357.486,282.184 357.486,276.885 362.075,279.535 				"/>
				<polygon style="fill:#283149;" points="366.663,287.483 362.075,284.834 362.075,279.535 366.663,282.184 				"/>
				<polygon style="fill:#283149;" points="366.663,292.782 362.075,290.132 362.075,284.834 366.663,287.483 				"/>
				<polygon style="fill:#283149;" points="366.663,298.08 362.075,295.431 362.075,290.132 366.663,292.782 				"/>
				<polygon style="fill:#283149;" points="357.486,298.08 352.897,295.431 352.897,290.132 357.486,292.782 				"/>
				<polygon style="fill:#283149;" points="357.486,314.017 352.897,311.368 352.897,306.069 357.486,308.718 				"/>
				<polygon style="fill:#283149;" points="371.252,306.028 366.663,303.379 366.663,298.08 371.252,300.73 				"/>
				<polygon style="fill:#283149;" points="371.252,327.223 366.663,324.574 366.663,319.275 371.252,321.924 				"/>
				<polygon style="fill:#283149;" points="352.897,316.626 348.308,313.976 348.308,308.678 352.897,311.327 				"/>
				<polygon style="fill:#283149;" points="348.308,313.976 343.719,311.327 343.719,306.028 348.308,308.678 				"/>
				<polygon style="fill:#283149;" points="343.719,311.327 339.13,308.677 339.13,303.379 343.719,306.028 				"/>
				<polygon style="fill:#283149;" points="339.13,308.677 334.542,306.028 334.542,300.729 339.13,303.379 				"/>
				<polygon style="fill:#283149;" points="343.719,306.028 339.13,303.379 339.13,298.08 343.719,300.729 				"/>
				<polygon style="fill:#283149;" points="339.13,303.379 334.542,300.729 334.542,295.431 339.13,298.08 				"/>
				<polygon style="fill:#283149;" points="343.719,300.729 339.13,298.08 339.13,292.781 343.719,295.431 				"/>
				<polygon style="fill:#283149;" points="343.719,295.431 339.13,292.781 339.13,287.483 343.719,290.132 				"/>
				<polygon style="fill:#283149;" points="339.13,287.483 334.542,284.833 334.542,279.535 339.13,282.184 				"/>
				<polygon style="fill:#283149;" points="334.542,284.833 329.953,282.184 329.953,276.885 334.542,279.535 				"/>
				<polygon style="fill:#283149;" points="329.953,282.184 325.364,279.535 325.364,274.236 329.953,276.885 				"/>
				<polygon style="fill:#283149;" points="325.364,279.535 320.775,276.885 320.775,271.587 325.364,274.236 				"/>
				<polygon style="fill:#283149;" points="334.542,290.132 329.953,287.483 329.953,282.184 334.542,284.833 				"/>
				<polygon style="fill:#283149;" points="329.953,287.483 325.364,284.833 325.364,279.535 329.953,282.184 				"/>
				<polygon style="fill:#283149;" points="320.775,292.781 316.186,290.132 316.186,284.833 320.775,287.483 				"/>
				<polygon style="fill:#283149;" points="320.775,271.587 316.186,268.937 316.186,263.639 320.775,266.288 				"/>
				<polygon style="fill:#283149;" points="325.364,284.833 320.775,282.184 320.775,276.885 325.364,279.535 				"/>
				<polygon style="fill:#283149;" points="329.953,292.781 325.364,290.132 325.364,284.833 329.953,287.483 				"/>
				<polygon style="fill:#283149;" points="325.364,290.132 320.775,287.483 320.775,282.184 325.364,284.833 				"/>
				<polygon style="fill:#283149;" points="329.953,298.08 325.364,295.431 325.364,290.132 329.953,292.781 				"/>
				<polygon style="fill:#283149;" points="325.364,300.729 320.775,298.08 320.775,292.781 325.364,295.431 				"/>
				<polygon style="fill:#283149;" points="334.542,279.535 329.953,276.885 329.953,271.587 334.542,274.236 				"/>
				<polygon style="fill:#283149;" points="329.953,276.885 325.364,274.236 325.364,268.937 329.953,271.587 				"/>
				<polygon style="fill:#283149;" points="325.364,274.236 320.775,271.587 320.775,266.288 325.364,268.937 				"/>
				<polygon style="fill:#283149;" points="329.953,271.587 325.364,268.937 325.364,263.639 329.953,266.288 				"/>
				<polygon style="fill:#283149;" points="329.953,266.288 325.364,263.639 325.364,258.34 329.953,260.989 				"/>
				<polygon style="fill:#283149;" points="325.364,268.937 320.775,266.288 320.775,260.989 325.364,263.639 				"/>
				<polygon style="fill:#283149;" points="320.775,276.885 316.186,274.236 316.186,268.937 320.775,271.587 				"/>
				<polygon style="fill:#283149;" points="339.13,298.08 334.542,295.431 334.542,290.132 339.13,292.781 				"/>
				<polygon style="fill:#283149;" points="334.542,306.028 329.953,303.379 329.953,298.08 334.542,300.729 				"/>
				<polygon style="fill:#283149;" points="348.308,292.781 343.719,290.132 343.719,284.833 348.308,287.483 				"/>
				<polygon style="fill:#283149;" points="352.897,300.73 348.308,298.08 348.308,292.781 352.897,295.431 				"/>
				<polygon style="fill:#283149;" points="366.663,308.678 362.075,306.028 362.075,300.73 366.663,303.379 				"/>
				<polygon style="fill:#283149;" points="366.663,313.976 362.075,311.327 362.075,306.028 366.663,308.678 				"/>
				<polygon style="fill:#283149;" points="362.075,311.327 357.486,308.678 357.486,303.379 362.075,306.028 				"/>
				<polygon style="fill:#283149;" points="357.486,308.678 352.897,306.028 352.897,300.73 357.486,303.379 				"/>
				<polygon style="fill:#283149;" points="352.897,306.028 348.308,303.379 348.308,298.08 352.897,300.73 				"/>
				<polygon style="fill:#283149;" points="366.663,319.275 362.075,316.626 362.075,311.327 366.663,313.976 				"/>
				<polygon style="fill:#283149;" points="366.663,324.574 362.075,321.924 362.075,316.626 366.663,319.275 				"/>
				<polygon style="fill:#283149;" points="357.486,287.483 352.897,284.833 352.897,279.535 357.486,282.184 				"/>
				<polygon style="fill:#283149;" points="352.897,274.236 348.308,271.587 348.308,266.288 352.897,268.938 				"/>
				<polygon style="fill:#283149;" points="352.897,279.535 348.308,276.885 348.308,271.587 352.897,274.236 				"/>
				<polygon style="fill:#283149;" points="352.897,284.833 348.308,282.184 348.308,276.885 352.897,279.535 				"/>
				<polygon style="fill:#283149;" points="348.308,287.483 343.719,284.833 343.719,279.535 348.308,282.184 				"/>
				<polygon style="fill:#283149;" points="348.308,276.885 343.719,274.236 343.719,268.938 348.308,271.587 				"/>
				<polygon style="fill:#283149;" points="348.308,282.184 343.719,279.535 343.719,274.236 348.308,276.885 				"/>
				<polygon style="fill:#283149;" points="357.486,271.587 352.897,268.938 352.897,263.639 357.486,266.288 				"/>
				<polygon style="fill:#283149;" points="357.486,292.782 352.897,290.132 352.897,284.833 357.486,287.483 				"/>
				<polygon style="fill:#283149;" points="362.075,295.431 357.486,292.782 357.486,287.483 362.075,290.132 				"/>
				<polygon style="fill:#283149;" points="366.663,271.587 362.075,268.938 362.075,263.639 366.663,266.288 				"/>
				<polygon style="fill:#283149;" points="366.663,276.886 362.075,274.236 362.075,268.938 366.663,271.587 				"/>
				<polygon style="fill:#283149;" points="371.252,268.938 366.663,266.288 366.663,260.99 371.252,263.639 				"/>
				<polygon style="fill:#283149;" points="371.252,284.834 366.663,282.184 366.663,276.886 371.252,279.535 				"/>
				<polygon style="fill:#283149;" points="329.953,239.795 325.364,237.145 325.364,231.847 329.953,234.496 				"/>
				<polygon style="fill:#283149;" points="334.542,242.444 329.953,239.795 329.953,234.496 334.542,237.145 				"/>
			</g>
			<polygon style="fill:#E6F9FF;" points="268.929,149.53 280.408,117.75 420.149,194.347 386.369,217.334 			"/>
			<g>
				
					<text transform="matrix(0.866 0.5 0 1 278.3389 316.9246)" style="fill:#283149; font-family:'Montserrat-SemiBold'; font-size:14.6159px;">SCAN QR CODE</text>
			</g>
			<path style="opacity:0.3;fill:#D0D5D6;" d="M268.929,288.807l117.44,60.819V217.334
				C386.369,217.334,386.012,348.344,268.929,288.807z"/>
		</g>
	</g>
</g>
</svg>
